# xmcd
#
# Track frame offsets:
#	150
#	14872
#	37233
#	54870
#	77662
#	90489
#	113600
#	132885
#	150381
#	165405
#	190176
#	217429
#	238565
#	288476
#
# Disc length: 4180 seconds
#
# Revision: 0
# Processed by: cddbd v1.5.1PL2 Copyright (c) Steve Scherf et al.
# Submitted via: EasyCDDAExtractor 4.6.9.1
#
DISCID=bb10520e
DTITLE=Robert Earl Keen - Live At The Ryman
DYEAR=2006
DGENRE=Country
TTITLE0=Feelin Good Again
TTITLE1=Gringo Honeymoon
TTITLE2=What I Really Mean
TTITLE3=Shades Of Gray
TTITLE4=Amarillo Highway
TTITLE5=Merry Little Christmas From The Family
TTITLE6=Corpus Christi Bay
TTITLE7=Furnace Fan
TTITLE8=Broken End Of Love
TTITLE9=Long Chain
TTITLE10=Train Trek
TTITLE11=I'm Comin' Home
TTITLE12=The Road Goes On Forever
TTITLE13=Farm Fresh Onions
EXTD=
EXTT0=
EXTT1=
EXTT2=
EXTT3=
EXTT4=
EXTT5=
EXTT6=
EXTT7=
EXTT8=
EXTT9=
EXTT10=
EXTT11=
EXTT12=
EXTT13=
PLAYORDER=
